<?xml version="1.0" standalone="no"?>
<!DOCTYPE svg PUBLIC "-//W3C//DTD SVG 20010904//EN"
 "http://www.w3.org/TR/2001/REC-SVG-20010904/DTD/svg10.dtd">
<svg version="1.0" xmlns="http://www.w3.org/2000/svg"
 width="512.000000pt" height="512.000000pt" viewBox="0 0 512.000000 512.000000"
 preserveAspectRatio="xMidYMid meet">
<metadata>
Created by potrace 1.16, written by Peter Selinger 2001-2019
</metadata>
<g transform="translate(0.000000,512.000000) scale(0.100000,-0.100000)"
fill="#000000" stroke="none">
<path d="M1170 4679 c-98 -10 -219 -49 -300 -96 -93 -54 -226 -190 -273 -280
-52 -100 -75 -171 -88 -273 -28 -220 54 -453 217 -612 l58 -58 -177 0 c-192 0
-216 -5 -275 -55 -91 -76 -105 -222 -32 -323 37 -51 118 -92 182 -92 45 0 50
-3 79 -42 75 -103 96 -211 60 -324 -11 -38 -37 -90 -56 -116 -32 -44 -39 -48
-76 -48 -68 0 -121 -21 -166 -67 -99 -98 -90 -275 17 -354 l29 -22 -57 -42
c-144 -106 -246 -260 -292 -439 -28 -109 -28 -283 0 -392 60 -235 218 -428
435 -530 182 -85 -33 -78 2314 -81 1411 -3 2102 0 2140 7 76 14 139 55 176
114 27 45 30 57 30 136 0 79 -3 91 -30 136 -42 67 -108 107 -188 112 -70 5
-99 25 -141 97 -77 130 -72 305 11 426 47 67 61 76 130 81 80 5 146 45 188
112 27 45 30 57 30 136 0 79 -3 91 -30 136 -19 30 -49 60 -79 79 -48 29 -53
30 -198 33 l-149 3 74 79 c134 142 198 303 198 500 1 129 -19 218 -71 325 -99
203 -277 345 -498 398 l-88 21 1 76 c0 68 -3 82 -30 125 -45 74 -101 108 -180
113 -64 4 -65 5 -98 51 -73 100 -92 208 -58 317 11 38 37 90 56 117 33 45 38
47 83 47 29 0 67 10 99 24 180 84 172 350 -12 433 -38 17 -115 18 -1465 19
-784 1 -1459 -2 -1500 -7z m2927 -183 c29 -35 26 -80 -8 -108 -20 -17 -94 -18
-1240 -18 -871 0 -1225 -3 -1242 -11 -49 -22 -61 -86 -22 -124 l24 -25 1095 0
1095 0 -23 -52 c-60 -136 -60 -275 -2 -419 l24 -59 -1307 2 -1306 3 -47 23
c-87 43 -158 149 -158 237 0 48 32 124 70 167 58 66 115 90 230 96 78 3 99 8
118 25 28 26 29 76 3 108 -16 20 -30 24 -92 27 -93 5 -206 -19 -267 -54 -159
-94 -243 -265 -214 -436 31 -181 170 -318 352 -347 43 -7 543 -11 1475 -11
1551 0 1446 4 1460 -60 9 -42 -15 -76 -62 -90 -27 -8 -448 -10 -1468 -8 -1302
4 -1435 5 -1485 21 -95 29 -180 77 -248 142 -236 222 -251 566 -36 804 92 101
228 173 357 191 34 4 700 7 1480 6 l1419 -1 25 -29z m238 -1310 c201 -60 351
-203 411 -391 63 -197 13 -411 -131 -563 -86 -92 -182 -147 -308 -176 l-28 -7
3 82 3 82 42 12 c100 30 204 121 249 220 75 164 42 348 -85 476 -65 65 -142
104 -232 118 -43 7 -685 11 -1927 11 -1174 0 -1870 4 -1881 10 -28 15 -44 61
-32 94 23 59 -96 56 1966 53 1791 -2 1893 -3 1950 -21z m-78 -311 c222 -66
268 -330 81 -465 -22 -16 -44 -30 -48 -30 -4 0 -9 41 -12 90 -4 77 -8 94 -26
113 l-23 22 -775 0 -776 0 -24 -28 c-29 -34 -31 -66 -3 -101 l20 -26 270 0
269 0 0 -45 0 -45 -1240 0 -1240 0 20 40 c28 55 50 153 50 225 0 72 -22 170
-50 225 l-20 40 1738 0 c1511 0 1745 -2 1789 -15z m-137 -950 c0 -289 -2 -525
-5 -525 -3 0 -83 41 -178 90 -96 50 -182 90 -192 90 -10 0 -97 -40 -193 -90
-96 -49 -176 -90 -178 -90 -2 0 -4 236 -4 525 l0 525 375 0 375 0 0 -525z
m-910 195 l0 -80 -1355 0 c-1481 0 -1413 -3 -1436 56 -11 32 3 78 30 94 10 6
545 10 1389 10 l1372 0 0 -80z m0 -330 l0 -100 -1262 -2 -1263 -3 -67 -32
c-127 -60 -208 -148 -249 -270 -18 -54 -21 -82 -17 -166 3 -89 8 -111 35 -170
67 -142 203 -238 363 -257 55 -7 568 -10 1453 -8 l1369 3 19 24 c22 27 25 79
5 107 -14 19 -43 19 -1433 24 -1591 6 -1464 -1 -1555 79 -62 55 -92 119 -96
209 -4 66 -1 79 27 137 35 70 79 111 158 148 l48 22 1232 3 1232 3 3 -155 c3
-143 5 -157 24 -177 39 -38 74 -28 294 87 113 59 210 107 215 107 6 0 102 -49
215 -108 220 -115 254 -125 294 -86 19 20 21 34 24 176 l4 155 168 0 169 0
-24 -52 c-73 -161 -73 -335 0 -495 l24 -53 -413 0 c-404 0 -413 0 -431 -20
-26 -29 -25 -85 3 -113 l23 -22 553 -3 554 -3 26 -26 c18 -18 26 -36 26 -62 0
-48 -22 -78 -68 -91 -53 -14 -4062 -14 -4168 1 -249 34 -455 202 -536 438 -20
57 -23 86 -23 206 0 133 2 144 31 217 93 229 301 389 542 418 37 4 608 8 1270
9 l1202 1 0 -100z m1682 90 c46 -13 68 -43 68 -91 0 -44 -35 -83 -81 -93 -18
-3 -159 -6 -315 -6 l-284 0 0 100 0 100 288 0 c166 0 303 -4 324 -10z"/>
</g>
</svg>
